<?xml version="1.0" encoding="utf-8"?>
<svg id="master-artboard" viewBox="0 0 1400 980" version="1.1" xmlns="http://www.w3.org/2000/svg" x="0px" y="0px" style="enable-background:new 0 0 1400 980;" width="1400px" height="980px">


<path d="M 1039.899994 490 A 339.899994 339.899994 0 0 1 700 829.899994 A 339.899994 339.899994 0 0 1 360.100006 490 A 339.899994 339.899994 0 0 1 700 150.100006 A 339.899994 339.899994 0 0 1 1039.899994 490 Z" class="st1" style="fill-rule: evenodd; clip-rule: evenodd; fill: rgb(177, 200, 250);" transform="matrix(1, 0, 0, 1, 0, 0)"/><path d="M 1333.099953 676.299988 A 106.900002 106.900002 0 0 1 1226.199951 783.199989 A 106.900002 106.900002 0 0 1 1119.29995 676.299988 A 106.900002 106.900002 0 0 1 1226.199951 569.399986 A 106.900002 106.900002 0 0 1 1333.099953 676.299988 Z" class="st1" style="fill-rule: evenodd; clip-rule: evenodd; fill: rgb(60, 250, 158);" transform="matrix(1, 0, 0, 1, 0, 0)"/><path d="M 1358.499977 161.399994 A 121.400002 121.400002 0 0 1 1237.099976 282.799995 A 121.400002 121.400002 0 0 1 1115.699974 161.399994 A 121.400002 121.400002 0 0 1 1237.099976 39.999992 A 121.400002 121.400002 0 0 1 1358.499977 161.399994 Z" class="st1" style="fill-rule: evenodd; clip-rule: evenodd; fill: rgb(60, 250, 158);" transform="matrix(1, 0, 0, 1, 0, -7.200835143676841)"/><path d="M 1177.99995 423.799988 A 55.299999 55.299999 0 0 1 1122.699951 479.099987 A 55.299999 55.299999 0 0 1 1067.399952 423.799988 A 55.299999 55.299999 0 0 1 1122.699951 368.499989 A 55.299999 55.299999 0 0 1 1177.99995 423.799988 Z" class="st1" style="fill-rule: evenodd; clip-rule: evenodd; fill: rgb(60, 250, 158);" transform="matrix(1, 0, 0, 1, 0, 0)"/><path d="M 264.100006 840.400024 A 106 106 0 0 1 158.100006 946.400024 A 106 106 0 0 1 52.100006 840.400024 A 106 106 0 0 1 158.100006 734.400024 A 106 106 0 0 1 264.100006 840.400024 Z" class="st1" style="fill-rule: evenodd; clip-rule: evenodd; fill: rgb(60, 250, 158);" transform="matrix(1, 0, 0, 1, 0, 0)"/><path d="M 493.299988 858.099976 A 58 58 0 0 1 435.299988 916.099976 A 58 58 0 0 1 377.299988 858.099976 A 58 58 0 0 1 435.299988 800.099976 A 58 58 0 0 1 493.299988 858.099976 Z" class="st1" style="fill-rule: evenodd; clip-rule: evenodd; fill: rgb(60, 250, 158);" transform="matrix(1, 0, 0, 1, 0, 0)"/><path d="M 216.100006 392.200012 A 58 58 0 0 1 158.100006 450.200012 A 58 58 0 0 1 100.100006 392.200012 A 58 58 0 0 1 158.100006 334.200012 A 58 58 0 0 1 216.100006 392.200012 Z" class="st1" style="fill-rule: evenodd; clip-rule: evenodd; fill: rgb(177, 200, 250);" transform="matrix(1, 0, 0, 1, 0, 0)"/><path d="M 337.600006 185.100006 A 109 109 0 0 1 228.600006 294.100006 A 109 109 0 0 1 119.600006 185.100006 A 109 109 0 0 1 228.600006 76.100006 A 109 109 0 0 1 337.600006 185.100006 Z" class="st1" style="fill-rule: evenodd; clip-rule: evenodd; fill: rgb(177, 200, 250);" transform="matrix(1, 0, 0, 1, 0, 0)"/>
<g transform="matrix(1, 0, 0, 1, 0, 0)">
		<g>
			<path class="st2" d="M330.6,374.1c0,9.4-7.6,17-17,17h-218c-9.4,0-17-7.6-17-17V100.8c0-9.4,7.6-17,17-17h218c9.4,0,17,7.6,17,17&#10;&#9;&#9;&#9;&#9;V374.1z" style="fill: none; stroke: rgb(255, 255, 255); stroke-width: 4; stroke-miterlimit: 10;"/>
		</g>
		<g id="XMLID_165_">
			<path class="st2" d="M306,118.5c0-6.6-5.4-11.9-12-11.9H115.3c-6.6,0-12,5.3-12,11.9v237.8c0,6.6,5.4,12,12,12H294&#10;&#9;&#9;&#9;&#9;c6.6,0,12-5.3,12-11.9V118.5z" style="fill: none; stroke: rgb(255, 255, 255); stroke-width: 4; stroke-miterlimit: 10;"/>
		</g>
		<path id="XMLID_168_" class="st2" d="M145.1,236c1-4.5,5.1-7.5,9.7-7.5h99.8c4.6,0,8.8,3,9.7,7.5c1.3,6.2-3.4,11.7-9.4,11.7H154.5&#10;&#9;&#9;&#9;C148.5,247.8,143.8,242.3,145.1,236z" style="fill: none; stroke: rgb(255, 255, 255); stroke-width: 4; stroke-miterlimit: 10;"/>
		<path id="XMLID_6_" class="st2" d="M145.1,275.8c1-4.5,5.1-7.5,9.7-7.5h99.8c4.6,0,8.8,3,9.7,7.5c1.3,6.2-3.4,11.7-9.4,11.7H154.5&#10;&#9;&#9;&#9;C148.5,287.5,143.8,282,145.1,275.8z" style="fill: none; stroke: rgb(255, 255, 255); stroke-width: 4; stroke-miterlimit: 10;"/>
		<path id="XMLID_167_" class="st2" d="M145.1,194.9c1-4.5,5.1-7.5,9.7-7.5h99.8c4.6,0,8.8,3,9.7,7.5c1.3,6.2-3.4,11.7-9.4,11.7&#10;&#9;&#9;&#9;H154.5C148.5,206.6,143.7,201.1,145.1,194.9z" style="fill: none; stroke: rgb(255, 255, 255); stroke-width: 4; stroke-miterlimit: 10;"/>
	</g>
<g transform="matrix(1, 0, 0, 1, 0, 0)">
		<g>
			<path d="M 587.400024 377.899994 H 820.500031 V 435.599995 H 587.400024 V 377.899994 Z" class="st2" style="fill: none; stroke: rgb(255, 255, 255); stroke-width: 4; stroke-miterlimit: 10;"/>
		</g>
		<g>
			<path d="M 424.799988 46.5 H 983.099976 V 377.899994 H 424.799988 V 46.5 Z" class="st2" style="fill: none; stroke: rgb(255, 255, 255); stroke-width: 4; stroke-miterlimit: 10;"/>
		</g>
		<g>
			<path d="M 424.799988 46.5 H 983.099976 V 377.899994 H 424.799988 V 46.5 Z" class="st2" style="fill: none; stroke: rgb(255, 255, 255); stroke-width: 4; stroke-miterlimit: 10;"/>
		</g>
		<g>
			<path d="M 435.299988 68.099998 H 972.700012 V 356.399986 H 435.299988 V 68.099998 Z" class="st2" style="fill: none; stroke: rgb(255, 255, 255); stroke-width: 4; stroke-miterlimit: 10;"/>
		</g>
		<g>
			<path class="st2" d="M833.1,451c0,2.3-1.6,4.1-3.5,4.1H578.3c-1.9,0-3.5-1.8-3.5-4.1v-10.2c0-2.3,1.6-4.1,3.5-4.1h251.3&#10;&#9;&#9;&#9;&#9;c1.9,0,3.5,1.8,3.5,4.1V451z" style="fill: none; stroke: rgb(255, 255, 255); stroke-width: 4; stroke-miterlimit: 10;"/>
		</g>
		<g>
			<g>
				<path d="M 483.200012 93.099998 H 924.700012 V 130.5 H 483.200012 V 93.099998 Z" class="st3" style="fill-rule: evenodd; clip-rule: evenodd; fill: none; stroke: rgb(255, 255, 255); stroke-width: 4; stroke-linecap: round; stroke-linejoin: round; stroke-miterlimit: 10;"/>
			</g>
			<g>
				<g>
					<g>
						<g>
							<path class="st2" d="M515.6,111.7c0,3.5-2.8,6.3-6.3,6.3c-3.5,0-6.3-2.8-6.3-6.3c0-3.5,2.8-6.3,6.3-6.3&#10;&#9;&#9;&#9;&#9;&#9;&#9;&#9;&#9;C512.8,105.5,515.6,108.3,515.6,111.7z" style="fill: none; stroke: rgb(255, 255, 255); stroke-width: 4; stroke-miterlimit: 10;"/>
						</g>
					</g>
				</g>
				<g>
					<g>
						<g>
							<path class="st2" d="M536.7,111.7c0,3.5-2.8,6.3-6.3,6.3c-3.5,0-6.3-2.8-6.3-6.3c0-3.5,2.8-6.3,6.3-6.3&#10;&#9;&#9;&#9;&#9;&#9;&#9;&#9;&#9;C533.9,105.5,536.7,108.3,536.7,111.7z" style="fill: none; stroke: rgb(255, 255, 255); stroke-width: 4; stroke-miterlimit: 10;"/>
						</g>
					</g>
				</g>
				<g>
					<g>
						<g>
							<path class="st2" d="M557.9,111.7c0,3.5-2.8,6.3-6.3,6.3c-3.5,0-6.3-2.8-6.3-6.3c0-3.5,2.8-6.3,6.3-6.3&#10;&#9;&#9;&#9;&#9;&#9;&#9;&#9;&#9;C555.1,105.5,557.9,108.3,557.9,111.7z" style="fill: none; stroke: rgb(255, 255, 255); stroke-width: 4; stroke-miterlimit: 10;"/>
						</g>
					</g>
				</g>
			</g>
			<g>
				<g>
					<path d="M 503 129.399994 H 644.300003 V 331.299988 H 503 V 129.399994 Z" class="st2" style="fill: none; stroke: rgb(255, 255, 255); stroke-width: 4; stroke-miterlimit: 10;"/>
				</g>
			</g>
			<g>
				<g>
					<path d="M 515 161.399994 H 632.400002 V 216.799995 H 515 V 161.399994 Z" class="st4" style="fill: none; stroke: rgb(255, 255, 255); stroke-width: 4; stroke-linecap: round; stroke-linejoin: round; stroke-miterlimit: 10;"/>
				</g>
			</g>
			<g>
				<g>
					<path d="M 515 245.199997 H 632.400002 V 300.599998 H 515 V 245.199997 Z" class="st4" style="fill: none; stroke: rgb(255, 255, 255); stroke-width: 4; stroke-linecap: round; stroke-linejoin: round; stroke-miterlimit: 10;"/>
				</g>
			</g>
			<g>
				<g>
					<path d="M 673.900024 129.399994 H 874.700027 V 331.299988 H 673.900024 V 129.399994 Z" class="st2" style="fill: none; stroke: rgb(255, 255, 255); stroke-width: 4; stroke-miterlimit: 10;"/>
				</g>
			</g>
			<g>
				<g>
					<path d="M 483.200012 129.399994 H 923.600006 V 331.299988 H 483.200012 V 129.399994 Z" class="st2" style="fill: none; stroke: rgb(255, 255, 255); stroke-width: 4; stroke-miterlimit: 10;"/>
				</g>
			</g>
			<g>
				<g>
					<path d="M 701.900024 230.899994 H 839.700027 V 243.899994 H 701.900024 V 230.899994 Z" class="st2" style="fill: none; stroke: rgb(255, 255, 255); stroke-width: 4; stroke-miterlimit: 10;"/>
				</g>
			</g>
			<g>
				<g>
					<path d="M 701.900024 259.200012 H 839.700027 V 272.200012 H 701.900024 V 259.200012 Z" class="st2" style="fill: none; stroke: rgb(255, 255, 255); stroke-width: 4; stroke-miterlimit: 10;"/>
				</g>
			</g>
			<g>
				<g>
					<path d="M 701.900024 287.600006 H 839.700027 V 300.600006 H 701.900024 V 287.600006 Z" class="st2" style="fill: none; stroke: rgb(255, 255, 255); stroke-width: 4; stroke-miterlimit: 10;"/>
				</g>
			</g>
			<g>
				<path d="M 704.700012 161.399994 H 765.000011 V 216.799995 H 704.700012 V 161.399994 Z" class="st2" style="fill: none; stroke: rgb(255, 255, 255); stroke-width: 4; stroke-miterlimit: 10;"/>
			</g>
			<g>
				<path d="M 779.400024 161.399994 H 839.700024 V 216.799995 H 779.400024 V 161.399994 Z" class="st2" style="fill: none; stroke: rgb(255, 255, 255); stroke-width: 4; stroke-miterlimit: 10;"/>
			</g>
		</g>
	</g>
<g transform="matrix(1, 0, 0, 1, 0, 0)">
		<g>
			<path class="st2" d="M1318.4,392.4c0,12.5-10.1,22.6-22.6,22.6h-214.6c-12.5,0-22.6-10.1-22.6-22.6V177.8&#10;&#9;&#9;&#9;&#9;c0-12.5,10.1-22.6,22.6-22.6h214.6c12.5,0,22.6,10.1,22.6,22.6V392.4z" style="fill: none; stroke: rgb(255, 255, 255); stroke-width: 4; stroke-miterlimit: 10;"/>
		</g>
		<g>
			<path class="st2" d="M1077.1,198.4v178.7c0,10.7,8.7,19.4,19.4,19.4h184c10.7,0,19.4-8.7,19.4-19.4V198.4H1077.1z" style="fill: none; stroke: rgb(255, 255, 255); stroke-width: 4; stroke-miterlimit: 10;"/>
		</g>
		<g>
			<path d="M 1077.099976 198.399994 H 1299.899979 V 344.299988 H 1077.099976 V 198.399994 Z" class="st2" style="fill: none; stroke: rgb(255, 255, 255); stroke-width: 4; stroke-miterlimit: 10;"/>
		</g>
		<g>
			<path d="M 1300.000024 177.800003 A 7.6 7.6 0 0 1 1292.400024 185.400003 A 7.6 7.6 0 0 1 1284.800025 177.800003 A 7.6 7.6 0 0 1 1292.400024 170.200003 A 7.6 7.6 0 0 1 1300.000024 177.800003 Z" class="st4" style="fill: none; stroke: rgb(255, 255, 255); stroke-width: 4; stroke-linecap: round; stroke-linejoin: round; stroke-miterlimit: 10;"/>
		</g>
		<g>
			<path class="st4" d="M1272.8,177.8c0,4.2-3.4,7.6-7.6,7.6c-4.2,0-7.6-3.4-7.6-7.6c0-4.2,3.4-7.5,7.6-7.5&#10;&#9;&#9;&#9;&#9;C1269.4,170.3,1272.8,173.7,1272.8,177.8z" style="fill: none; stroke: rgb(255, 255, 255); stroke-width: 4; stroke-linecap: round; stroke-linejoin: round; stroke-miterlimit: 10;"/>
		</g>
		<g>
			<path d="M 1245.799951 177.800003 A 7.6 7.6 0 0 1 1238.199951 185.400003 A 7.6 7.6 0 0 1 1230.599951 177.800003 A 7.6 7.6 0 0 1 1238.199951 170.200003 A 7.6 7.6 0 0 1 1245.799951 177.800003 Z" class="st4" style="fill: none; stroke: rgb(255, 255, 255); stroke-width: 4; stroke-linecap: round; stroke-linejoin: round; stroke-miterlimit: 10;"/>
		</g>
		<g>
			<g>
				<path class="st4" d="M1222.8,270.5l-59.5-34.3c-0.4-0.2-0.9-0.4-1.3-0.4c-1.3,0-2.7,1-2.7,2.7v68.7c0,2.2,2.4,3.2,4,2.3&#10;&#9;&#9;&#9;&#9;&#9;l59.5-34.4c1.2-0.7,1.3-1.8,1.3-2.3C1224.1,272.3,1224,271.2,1222.8,270.5z" style="fill: none; stroke: rgb(255, 255, 255); stroke-width: 4; stroke-linecap: round; stroke-linejoin: round; stroke-miterlimit: 10;"/>
			</g>
			<g>
				<path class="st4" d="M1222.8,275.1l-59.5,34.4c-1.6,0.9-4-0.1-4-2.3v-68.7c0-1.7,1.4-2.7,2.7-2.7c0.5,0,0.9,0.1,1.3,0.4&#10;&#9;&#9;&#9;&#9;&#9;l59.5,34.3c1.2,0.7,1.3,1.8,1.3,2.3C1224.1,273.3,1224,274.4,1222.8,275.1z" style="fill: none; stroke: rgb(255, 255, 255); stroke-width: 4; stroke-linecap: round; stroke-linejoin: round; stroke-miterlimit: 10;"/>
			</g>
		</g>
		<g>
			<path d="M 1107.599976 368.600006 H 1267.299973 V 377.000006 H 1107.599976 V 368.600006 Z" class="st4" style="fill: none; stroke: rgb(255, 255, 255); stroke-width: 4; stroke-linecap: round; stroke-linejoin: round; stroke-miterlimit: 10;"/>
		</g>
		<g>
			<path d="M 1206.900024 368.600006 H 1267.300026 V 377.000006 H 1206.900024 V 368.600006 Z" class="st4" style="fill: none; stroke: rgb(255, 255, 255); stroke-width: 4; stroke-linecap: round; stroke-linejoin: round; stroke-miterlimit: 10;"/>
		</g>
		<g>
			<path d="M 1216.000025 372.799988 A 9.1 9.1 0 0 1 1206.900024 381.899988 A 9.1 9.1 0 0 1 1197.800024 372.799988 A 9.1 9.1 0 0 1 1206.900024 363.699987 A 9.1 9.1 0 0 1 1216.000025 372.799988 Z" class="st4" style="fill: none; stroke: rgb(255, 255, 255); stroke-width: 4; stroke-linecap: round; stroke-linejoin: round; stroke-miterlimit: 10;"/>
		</g>
	</g>
<g transform="matrix(1, 0, 0, 1, 0, 0)">
		<g>
			<g>
				<path class="st5" d="M1291.3,109.4c0,4.4-3.6,8-8,8h-191.7c-4.4,0-8-3.6-8-8V32.5c0-4.4,3.6-8,8-8h191.7c4.4,0,8,3.6,8,8V109.4z&#10;&#9;&#9;&#9;&#9;&#9;" style="fill: none; stroke: rgb(255, 255, 255); stroke-width: 3; stroke-linecap: round; stroke-linejoin: round; stroke-miterlimit: 10;"/>
			</g>
		</g>
		<g>
			<path d="M1113.4,40.4h6.2v21.3h0.1c1-1.8,2.5-3.4,4.4-4.4c1.8-1.1,4-1.8,6.3-1.8c4.6,0,11.9,2.8,11.9,14.6v20.3h-6.2V70.8&#10;&#9;&#9;&#9;&#9;c0-5.5-2-10.1-7.9-10.1c-4,0-7.1,2.8-8.3,6.2c-0.4,0.8-0.4,1.8-0.4,3v20.6h-6.2V40.4z" style="stroke: rgb(255, 255, 255); fill: rgb(255, 255, 255);"/>
			<path d="M1159.7,48.1v8.2h8.9V61h-8.9v18.3c0,4.2,1.2,6.6,4.7,6.6c1.7,0,2.7-0.1,3.6-0.4l0.3,4.7c-1.2,0.4-3.1,0.8-5.5,0.8&#10;&#9;&#9;&#9;&#9;c-2.9,0-5.2-1-6.7-2.6c-1.7-1.9-2.4-4.9-2.4-9V61h-5.3v-4.7h5.3V50L1159.7,48.1z" style="stroke: rgb(255, 255, 255); fill: rgb(255, 255, 255);"/>
			<path d="M1183.1,48.1v8.2h8.9V61h-8.9v18.3c0,4.2,1.2,6.6,4.7,6.6c1.7,0,2.7-0.1,3.6-0.4l0.3,4.7c-1.2,0.4-3.1,0.8-5.5,0.8&#10;&#9;&#9;&#9;&#9;c-2.9,0-5.2-1-6.7-2.6c-1.7-1.9-2.4-4.9-2.4-9V61h-5.3v-4.7h5.3V50L1183.1,48.1z" style="stroke: rgb(255, 255, 255); fill: rgb(255, 255, 255);"/>
			<path d="M1199,67.4c0-4.4-0.1-7.9-0.3-11.1h5.6l0.4,5.9h0.1c2.5-4.2,6.6-6.6,12.1-6.6c8.3,0,14.5,7,14.5,17.3&#10;&#9;&#9;&#9;&#9;c0,12.3-7.5,18.3-15.5,18.3c-4.6,0-8.5-2-10.5-5.4h-0.1v18.5h-6.2V67.4z M1205.2,76.5c0,0.8,0.1,1.8,0.3,2.5&#10;&#9;&#9;&#9;&#9;c1.1,4.3,4.9,7.3,9.2,7.3c6.6,0,10.4-5.4,10.4-13.2c0-6.8-3.5-12.7-10.1-12.7c-4.2,0-8.3,3-9.5,7.7c-0.1,0.8-0.4,1.7-0.4,2.5&#10;&#9;&#9;&#9;&#9;V76.5z" style="stroke: rgb(255, 255, 255); fill: rgb(255, 255, 255);"/>
			<path d="M1238.2,84.1c1.9,1.1,5.1,2.4,8.3,2.4c4.4,0,6.6-2.2,6.6-5.1c0-3-1.8-4.5-6.3-6.2c-6.2-2.3-9.1-5.6-9.1-9.7&#10;&#9;&#9;&#9;&#9;c0-5.5,4.5-10,11.8-10c3.5,0,6.5,0.9,8.3,2.1l-1.5,4.4c-1.3-0.8-3.8-2-7-2c-3.7,0-5.6,2.1-5.6,4.7c0,2.8,2,4.1,6.4,5.9&#10;&#9;&#9;&#9;&#9;c5.9,2.2,9,5.1,9,10.2c0,6.1-4.7,10.3-12.7,10.3c-3.7,0-7.2-1-9.6-2.4L1238.2,84.1z" style="stroke: rgb(255, 255, 255); fill: rgb(255, 255, 255);"/>
		</g>
	</g>
<g transform="matrix(1, 0, 0, 1, 0, 0)">
		<g>
			<path d="M 365.79998779296875 654.5 L 365.79998779296875 855.2000122070312 L 165.10000610351562 855.2000122070312 L 165.10000610351562 911.7000122070312 L 445.1000061035156 911.7000122070312 L 445.1000061035156 654.5 Z" class="st2" style="fill: none; stroke: rgb(255, 255, 255); stroke-width: 4; stroke-miterlimit: 10;"/>
		</g>
		<g>
			<path class="st2" d="M366.5,729.3h-0.7v14.8h0.7c2.3,0,4.1-1.8,4.1-4.1v-6.7C370.6,731.1,368.7,729.3,366.5,729.3z" style="fill: none; stroke: rgb(255, 255, 255); stroke-width: 4; stroke-miterlimit: 10;"/>
		</g>
		<g>
			<path class="st2" d="M378.7,788.4h-12.9v14.8h12.9c2.3,0,4.1-1.8,4.1-4.1v-6.7C382.8,790.3,380.9,788.4,378.7,788.4z" style="fill: none; stroke: rgb(255, 255, 255); stroke-width: 4; stroke-miterlimit: 10;"/>
		</g>
		<g>
			<path class="st2" d="M224.2,855.2c0,0.1,0,0.3,0,0.4v6.7c0,2.3,1.8,4.1,4.1,4.1h86.9c2.3,0,4.1-1.8,4.1-4.1v-6.7&#10;&#9;&#9;&#9;&#9;c0-0.1,0-0.3,0-0.4H224.2z" style="fill: none; stroke: rgb(255, 255, 255); stroke-width: 4; stroke-miterlimit: 10;"/>
		</g>
		<g>
			<path class="st2" d="M365.8,851.6v3.6h-32.7c0,0.1,0,0.3,0,0.4v6.7c0,2.3,1.8,4.1,4.1,4.1h28.5c2.3,0,4.1-1.8,4.1-4.1v-6.7&#10;&#9;&#9;&#9;&#9;C369.6,853.4,367.9,851.7,365.8,851.6z" style="fill: none; stroke: rgb(255, 255, 255); stroke-width: 4; stroke-miterlimit: 10;"/>
		</g>
		<g>
			<path d="M 365.799988 654.5 H 445.099991 V 693.5 H 365.799988 V 654.5 Z" class="st2" style="fill: none; stroke: rgb(255, 255, 255); stroke-width: 4; stroke-miterlimit: 10;"/>
		</g>
	</g><g transform="matrix(1.0000000298023224, 0, 0, 1.0000000298023224, 0, 0)">
			<path d="M 68.800003 582.599976 H 348.800003 V 839.799988 H 68.800003 V 582.599976 Z" class="st2" style="fill: none; stroke: rgb(255, 255, 255); stroke-width: 4; stroke-miterlimit: 10;"/>
		</g><path class="st2" d="M270.2,672.2H131.9c-2.3,0-4.1-1.8-4.1-4.1v-6.7c0-2.3,1.8-4.1,4.1-4.1h138.2c2.3,0,4.1,1.8,4.1,4.1v6.7&#10;&#9;&#9;&#9;&#9;C274.3,670.4,272.4,672.2,270.2,672.2z" style="fill: none; stroke: rgb(255, 255, 255); stroke-width: 4; stroke-miterlimit: 10;" transform="matrix(1.0000000298023224, 0, 0, 1.0000000298023224, 0, 0)"/><path class="st2" d="M211.1,700.9h-28.5c-2.3,0-4.1-1.8-4.1-4.1v-6.7c0-2.3,1.8-4.1,4.1-4.1h28.5c2.3,0,4.1,1.8,4.1,4.1v6.7&#10;&#9;&#9;&#9;&#9;C215.1,699.1,213.3,700.9,211.1,700.9z" style="fill: none; stroke: rgb(255, 255, 255); stroke-width: 4; stroke-miterlimit: 10;" transform="matrix(1.0000000298023224, 0, 0, 1.0000000298023224, 0, 0)"/><path class="st2" d="M167.7,700.9h-35.8c-2.3,0-4.1-1.8-4.1-4.1v-6.7c0-2.3,1.8-4.1,4.1-4.1h35.8c2.3,0,4.1,1.8,4.1,4.1v6.7&#10;&#9;&#9;&#9;&#9;C171.8,699.1,170,700.9,167.7,700.9z" style="fill: none; stroke: rgb(255, 255, 255); stroke-width: 4; stroke-miterlimit: 10;" transform="matrix(1.0000000298023224, 0, 0, 1.0000000298023224, 0, 0)"/><path class="st2" d="M259.1,758.3H131.9c-2.3,0-4.1-1.8-4.1-4.1v-6.7c0-2.3,1.8-4.1,4.1-4.1h127.2c2.3,0,4.1,1.8,4.1,4.1v6.7&#10;&#9;&#9;&#9;&#9;C263.2,756.5,261.4,758.3,259.1,758.3z" style="fill: none; stroke: rgb(255, 255, 255); stroke-width: 4; stroke-miterlimit: 10;" transform="matrix(1.0000000298023224, 0, 0, 1.0000000298023224, 0, 0)"/><path class="st2" d="M282.4,731.3h-79.7c-2.3,0-4.1-1.8-4.1-4.1v-6.7c0-2.3,1.8-4.1,4.1-4.1h79.7c2.3,0,4.1,1.8,4.1,4.1v6.7&#10;&#9;&#9;&#9;&#9;C286.5,729.5,284.6,731.3,282.4,731.3z" style="fill: none; stroke: rgb(255, 255, 255); stroke-width: 4; stroke-miterlimit: 10;" transform="matrix(1.0000000298023224, 0, 0, 1.0000000298023224, 0, 0)"/><path class="st2" d="M186.9,731.3h-55c-2.3,0-4.1-1.8-4.1-4.1v-6.7c0-2.3,1.8-4.1,4.1-4.1h55c2.3,0,4.1,1.8,4.1,4.1v6.7&#10;&#9;&#9;&#9;&#9;C191,729.5,189.2,731.3,186.9,731.3z" style="fill: none; stroke: rgb(255, 255, 255); stroke-width: 4; stroke-miterlimit: 10;" transform="matrix(1.0000000298023224, 0, 0, 1.0000000298023224, 0, 0)"/><path class="st2" d="M227.8,700.9L227.8,700.9c-2.3,0-4.1-1.8-4.1-4.1v-6.7c0-2.3,1.8-4.1,4.1-4.1l0,0c2.3,0,4.1,1.8,4.1,4.1v6.7&#10;&#9;&#9;&#9;&#9;C231.9,699.1,230.1,700.9,227.8,700.9z" style="fill: none; stroke: rgb(255, 255, 255); stroke-width: 4; stroke-miterlimit: 10;" transform="matrix(1.0000000298023224, 0, 0, 1.0000000298023224, 0, 0)"/><path class="st2" d="M218.9,794.4h-86.9c-2.3,0-4.1-1.8-4.1-4.1v-6.7c0-2.3,1.8-4.1,4.1-4.1h86.9c2.3,0,4.1,1.8,4.1,4.1v6.7&#10;&#9;&#9;&#9;&#9;C222.9,792.6,221.1,794.4,218.9,794.4z" style="fill: none; stroke: rgb(255, 255, 255); stroke-width: 4; stroke-miterlimit: 10;" transform="matrix(1.0000000298023224, 0, 0, 1.0000000298023224, 0, 0)"/><path class="st2" d="M269.3,794.4h-28.5c-2.3,0-4.1-1.8-4.1-4.1v-6.7c0-2.3,1.8-4.1,4.1-4.1h28.5c2.3,0,4.1,1.8,4.1,4.1v6.7&#10;&#9;&#9;&#9;&#9;C273.3,792.6,271.5,794.4,269.3,794.4z" style="fill: none; stroke: rgb(255, 255, 255); stroke-width: 4; stroke-miterlimit: 10;" transform="matrix(1.0000000298023224, 0, 0, 1.0000000298023224, 0, 0)"/><path d="M 68.800003 582.599976 H 348.800003 V 621.599976 H 68.800003 V 582.599976 Z" class="st2" style="fill: none; stroke: rgb(255, 255, 255); stroke-width: 4; stroke-miterlimit: 10;" transform="matrix(1.0000000298023224, 0, 0, 1.0000000298023224, 0, 0)"/><path d="M 105.399999 601.599976 A 6.8 6.8 0 0 1 98.599998 608.399976 A 6.8 6.8 0 0 1 91.799998 601.599976 A 6.8 6.8 0 0 1 98.599998 594.799975 A 6.8 6.8 0 0 1 105.399999 601.599976 Z" class="st2" style="fill: none; stroke: rgb(255, 255, 255); stroke-width: 4; stroke-miterlimit: 10;" transform="matrix(1.0000000298023224, 0, 0, 1.0000000298023224, 0, 0)"/><path d="M 129.8 601.599976 A 6.8 6.8 0 0 1 123 608.399976 A 6.8 6.8 0 0 1 116.2 601.599976 A 6.8 6.8 0 0 1 123 594.799975 A 6.8 6.8 0 0 1 129.8 601.599976 Z" class="st2" style="fill: none; stroke: rgb(255, 255, 255); stroke-width: 4; stroke-miterlimit: 10;" transform="matrix(1.0000000298023224, 0, 0, 1.0000000298023224, 0, 0)"/><path d="M 154.199994 601.599976 A 6.8 6.8 0 0 1 147.399994 608.399976 A 6.8 6.8 0 0 1 140.599994 601.599976 A 6.8 6.8 0 0 1 147.399994 594.799975 A 6.8 6.8 0 0 1 154.199994 601.599976 Z" class="st2" style="fill: none; stroke: rgb(255, 255, 255); stroke-width: 4; stroke-miterlimit: 10;" transform="matrix(1.0000000298023224, 0, 0, 1.0000000298023224, 0, 0)"/>
<g transform="matrix(1, 0, 0, 1, 0, 0)">
		<g>
			<path class="st2" d="M512.2,903c-7.6,0-13.7-6.1-13.7-13.7V594.8c0-7.6,6.1-13.7,13.7-13.7h400.6c7.6,0,13.7,6.1,13.7,13.7v294.5&#10;&#9;&#9;&#9;&#9;c0,7.6-6.1,13.7-13.7,13.7H512.2z" style="fill: none; stroke: rgb(255, 255, 255); stroke-width: 4; stroke-miterlimit: 10;"/>
		</g>
		<g>
			<path class="st2" d="M506.3,767.8c0,0,0-51.5,0-51.5l20.2,0v51.5H506.3z" style="fill: none; stroke: rgb(255, 255, 255); stroke-width: 4; stroke-miterlimit: 10;"/>
		</g>
		<g>
			<path d="M 538.5 606.200012 H 898 V 877.800018 H 538.5 V 606.200012 Z" class="st2" style="fill: none; stroke: rgb(255, 255, 255); stroke-width: 4; stroke-miterlimit: 10;"/>
		</g>
		
			<path d="M 562.099976 844.599976 H 862.999969 V 858.399976 H 562.099976 V 844.599976 Z" transform="matrix(-1 -1.224647e-16 1.224647e-16 -1 1425.0652 1702.8583)" class="st2" style="fill: none; stroke: rgb(255, 255, 255); stroke-width: 4; stroke-miterlimit: 10;"/>
		<path d="M 551.700012 622.200012 H 886.400024 V 654.900013 H 551.700012 V 622.200012 Z" class="st2" style="fill: none; stroke: rgb(255, 255, 255); stroke-width: 4; stroke-miterlimit: 10;"/>
		
			<path d="M 562.099976 818.099976 H 862.999969 V 831.899976 H 562.099976 V 818.099976 Z" transform="matrix(-1 -1.224647e-16 1.224647e-16 -1 1425.0652 1649.8809)" class="st2" style="fill: none; stroke: rgb(255, 255, 255); stroke-width: 4; stroke-miterlimit: 10;"/>
		<g>
			<g>
				<path class="st4" d="M816.1,712.3h-1.9v0.1h-23.6v82.5l29.3-75.7c1.2-2.4,0.4-4.1,0-4.7C819.5,713.7,818.4,712.3,816.1,712.3z" style="fill: none; stroke: rgb(255, 255, 255); stroke-width: 4; stroke-linecap: round; stroke-linejoin: round; stroke-miterlimit: 10;"/>
			</g>
			<g>
				<path class="st4" d="M786.1,688.3h-63.3l-4.4-9.4c-0.7-1.6-2.3-2.6-4.1-2.6h-36.6c-1.7,0-3.3,1-4.1,2.6l-4.4,9.4h-9.2&#10;&#9;&#9;&#9;&#9;&#9;c-2.5,0-4.5,2-4.5,4.5v102c0,2.5,2,4.5,4.5,4.5h125.9c1.6,0,3.1-0.9,3.9-2.3l0.1-0.3c0.3-0.6,0.5-1.2,0.5-1.9v-102&#10;&#9;&#9;&#9;&#9;&#9;C790.6,690.3,788.6,688.3,786.1,688.3z" style="fill: none; stroke: rgb(255, 255, 255); stroke-width: 4; stroke-linecap: round; stroke-linejoin: round; stroke-miterlimit: 10;"/>
			</g>
		</g>
	</g>
<g transform="matrix(1, 0, 0, 1, 0, 0)">
		<g>
			<g>
				<g>
					<g>
						<path class="st3" d="M1097.6,578.3l151.2-0.2c11.1,0,20.2,9.1,20.1,20.2l-0.3,278.8c0,11.2-9.1,20.2-20.2,20.1l-151.2,0.2&#10;&#9;&#9;&#9;&#9;&#9;&#9;&#9;c-11.2,0-20.2-9.1-20.2-20.2l0.3-278.9C1077.3,587.3,1086.4,578.3,1097.6,578.3z" style="fill-rule: evenodd; clip-rule: evenodd; fill: none; stroke: rgb(255, 255, 255); stroke-width: 4; stroke-linecap: round; stroke-linejoin: round; stroke-miterlimit: 10;"/>
					</g>
				</g>
			</g>
		</g>
		<g>
			<g>
				<path class="st6" d="M1196.5,603.4l-44.3-0.5c-2.4,0-4.4-2-4.4-4.5l0,0c0-2.4,2-4.4,4.5-4.4l44.3,0.5c2.4,0,4.4,2,4.4,4.5l0,0&#10;&#9;&#9;&#9;&#9;&#9;C1201,601.4,1199,603.4,1196.5,603.4z" style="fill-rule: evenodd; clip-rule: evenodd; fill: none; stroke: rgb(255, 255, 255); stroke-width: 4; stroke-miterlimit: 10;"/>
			</g>
		</g>
		<g>
			<g>
				<g>
					<g>
						<path class="st6" d="M1171.4,870c5.1,0,9.2,4.1,9.2,9.2c0,5.1-4.2,9.2-9.2,9.2c-5.1,0-9.2-4.1-9.2-9.2&#10;&#9;&#9;&#9;&#9;&#9;&#9;&#9;C1162.2,874.1,1166.3,870,1171.4,870z" style="fill-rule: evenodd; clip-rule: evenodd; fill: none; stroke: rgb(255, 255, 255); stroke-width: 4; stroke-miterlimit: 10;"/>
					</g>
				</g>
			</g>
		</g>
		<g>
			<g>
				<g>
					<g>
						<path class="st6" d="M1089.8,614.6l166.5-0.2L1256,861l-166.5,0.2L1089.8,614.6z" style="fill-rule: evenodd; clip-rule: evenodd; fill: none; stroke: rgb(255, 255, 255); stroke-width: 4; stroke-miterlimit: 10;"/>
					</g>
				</g>
			</g>
		</g>
		<g>
			<g>
				<g>
					<g>
						<g>
							<g>
								<g>
									
										<path d="M 1124.199951 647.200012 H 1145.99995 V 692.800011 H 1124.199951 V 647.200012 Z" transform="matrix(1.067156e-02 -0.9999 0.9999 1.067156e-02 453.0027 1797.9114)" class="st2" style="fill: none; stroke: rgb(255, 255, 255); stroke-width: 4; stroke-miterlimit: 10;"/>
									
										<path d="M 1192.599976 649.799988 H 1214.399975 V 691.799988 H 1192.599976 V 649.799988 Z" transform="matrix(1.067156e-02 -0.9999 0.9999 1.067156e-02 519.941 1867.0278)" class="st2" style="fill: none; stroke: rgb(255, 255, 255); stroke-width: 4; stroke-miterlimit: 10;"/>
								</g>
							</g>
						</g>
					</g>
				</g>
				<g>
					<g>
						<g>
							<g>
								<g>
									
										<path d="M 1141.699951 710.599976 H 1154.399951 V 783.799973 H 1141.699951 V 710.599976 Z" transform="matrix(1.067156e-02 -0.9999 0.9999 1.067156e-02 388.6768 1887.2076)" class="st2" style="fill: none; stroke: rgb(255, 255, 255); stroke-width: 4; stroke-miterlimit: 10;"/>
									
										<path d="M 1206.900024 737.5 H 1219.600024 V 758.299999 H 1206.900024 V 737.5 Z" transform="matrix(1.067156e-02 -0.9999 0.9999 1.067156e-02 452.5014 1953.109)" class="st2" style="fill: none; stroke: rgb(255, 255, 255); stroke-width: 4; stroke-miterlimit: 10;"/>
								</g>
							</g>
						</g>
					</g>
				</g>
				<g>
					<g>
						<g>
							<g>
								<g>
									
										<path d="M 1182.300049 672.099976 H 1195.000049 V 742.899979 H 1182.300049 V 672.099976 Z" transform="matrix(1.067156e-02 -0.9999 0.9999 1.067156e-02 468.5397 1888.5658)" class="st2" style="fill: none; stroke: rgb(255, 255, 255); stroke-width: 4; stroke-miterlimit: 10;"/>
									
										<path d="M 1119.900024 692.5 H 1132.600024 V 721.1 H 1119.900024 V 692.5 Z" transform="matrix(1.067156e-02 -0.9999 0.9999 1.067156e-02 407.4133 1825.4504)" class="st2" style="fill: none; stroke: rgb(255, 255, 255); stroke-width: 4; stroke-miterlimit: 10;"/>
								</g>
							</g>
						</g>
					</g>
				</g>
				<g>
					<g>
						<g>
							<g>
								<g>
									
										<path d="M 1132.599976 743.400024 H 1145.299975 V 798.800026 H 1132.599976 V 743.400024 Z" transform="matrix(1.067156e-02 -0.9999 0.9999 1.067156e-02 355.7039 1901.6971)" class="st2" style="fill: none; stroke: rgb(255, 255, 255); stroke-width: 4; stroke-miterlimit: 10;"/>
									
										<path d="M 1196.699951 751.400024 H 1209.399951 V 792.100025 H 1196.699951 V 751.400024 Z" transform="matrix(1.067156e-02 -0.9999 0.9999 1.067156e-02 418.4908 1966.527)" class="st2" style="fill: none; stroke: rgb(255, 255, 255); stroke-width: 4; stroke-miterlimit: 10;"/>
								</g>
							</g>
						</g>
					</g>
				</g>
				<g>
					<g>
						<g>
							<g>
								<g>
									
										<path d="M 1173.5 784.5 H 1186.2 V 810 H 1173.5 V 784.5 Z" transform="matrix(1.067156e-02 -0.9999 0.9999 1.067156e-02 370.0899 1968.5454)" class="st2" style="fill: none; stroke: rgb(255, 255, 255); stroke-width: 4; stroke-miterlimit: 10;"/>
									
										<path d="M 1124.199951 777.099976 H 1136.899951 V 816.299976 H 1124.199951 V 777.099976 Z" transform="matrix(1.067156e-02 -0.9999 0.9999 1.067156e-02 321.8326 1918.7178)" class="st2" style="fill: none; stroke: rgb(255, 255, 255); stroke-width: 4; stroke-miterlimit: 10;"/>
									
										<path d="M 1208.5 789.299988 H 1221.2 V 805.799988 H 1208.5 V 789.299988 Z" transform="matrix(1.067156e-02 -0.9999 0.9999 1.067156e-02 404.3381 2003.908)" class="st2" style="fill: none; stroke: rgb(255, 255, 255); stroke-width: 4; stroke-miterlimit: 10;"/>
								</g>
							</g>
						</g>
					</g>
				</g>
			</g>
		</g>
	</g>
<g transform="matrix(1, 0, 0, 1, 0, 0)">
		<path d="M 1299.900024 502.5 H 1318.400024 V 556.700001 H 1299.900024 V 502.5 Z" class="st2" style="fill: none; stroke: rgb(255, 255, 255); stroke-width: 4; stroke-miterlimit: 10;"/>
		<path d="M 1333.099976 502.5 H 1351.599976 V 556.700001 H 1333.099976 V 502.5 Z" class="st2" style="fill: none; stroke: rgb(255, 255, 255); stroke-width: 4; stroke-miterlimit: 10;"/>
	</g>
<g transform="matrix(1, 0, 0, 1, 0, 0)">
		<g>
			<path class="st2" d="M356.1,432.8l-17.9-10.3c-0.3-0.2-0.5-0.2-0.8-0.2c-0.8,0-1.7,0.6-1.7,1.7v43.2c0,1.4,1.5,2,2.5,1.4&#10;&#9;&#9;&#9;&#9;l17.9-10.3V432.8z" style="fill: none; stroke: rgb(255, 255, 255); stroke-width: 4; stroke-miterlimit: 10;"/>
		</g>
		<g>
			<path class="st2" d="M404.5,447l-37.4,21.6c-1,0.6-2.5,0-2.5-1.4v-43.2c0-1,0.9-1.7,1.7-1.7c0.3,0,0.6,0.1,0.8,0.2l37.4,21.6&#10;&#9;&#9;&#9;&#9;c0.8,0.4,0.8,1.2,0.8,1.5C405.3,445.8,405.3,446.5,404.5,447z" style="fill: none; stroke: rgb(255, 255, 255); stroke-width: 4; stroke-miterlimit: 10;"/>
		</g>
	</g>
<g transform="matrix(1, 0, 0, 1, 0, 0)">
		<path d="M 1034.400024 574.400024 L 965.799988 574.400024" class="st0" style="fill: rgb(255, 255, 255);"/>
		<path d="M1034.4,575.8h-68.6c-0.8,0-1.4-0.6-1.4-1.4c0-0.8,0.6-1.4,1.4-1.4h68.6c0.8,0,1.4,0.6,1.4,1.4&#10;&#9;&#9;&#9;C1035.8,575.2,1035.1,575.8,1034.4,575.8z" style="fill: rgb(255, 255, 255);"/>
	</g><path d="M 1019.099976 557.5 L 950.5 557.5" class="st0" style="fill: rgb(255, 255, 255);" transform="matrix(1.0000000298023224, 0, 0, 1.0000000298023224, 0, 0)"/><path d="M1019.1,558.9h-68.6c-0.8,0-1.4-0.6-1.4-1.4c0-0.8,0.6-1.4,1.4-1.4h68.6c0.8,0,1.4,0.6,1.4,1.4&#10;&#9;&#9;&#9;C1020.5,558.3,1019.9,558.9,1019.1,558.9z" transform="matrix(1.0000000298023224, 0, 0, 1.0000000298023224, 0, 0)" style="fill: rgb(255, 255, 255);"/><path d="M 1013 442.700012 L 944.400024 442.700012" class="st0" style="fill: rgb(255, 255, 255);" transform="matrix(1.0000000298023224, 0, 0, 1.0000000298023224, 0, 0)"/><path d="M1013,444.1h-68.6c-0.8,0-1.4-0.6-1.4-1.4c0-0.8,0.6-1.4,1.4-1.4h68.6c0.8,0,1.4,0.6,1.4,1.4&#10;&#9;&#9;&#9;C1014.4,443.5,1013.8,444.1,1013,444.1z" transform="matrix(1.0000000298023224, 0, 0, 1.0000000298023224, 0, 0)" style="fill: rgb(255, 255, 255);"/><path d="M 959 457.700012 L 890.400024 457.700012" class="st0" style="fill: rgb(255, 255, 255);" transform="matrix(1.0000000298023224, 0, 0, 1.0000000298023224, 0, 0)"/><path d="M959,459.1h-68.6c-0.8,0-1.4-0.6-1.4-1.4c0-0.8,0.6-1.4,1.4-1.4H959c0.8,0,1.4,0.6,1.4,1.4&#10;&#9;&#9;&#9;C960.4,458.4,959.8,459.1,959,459.1z" transform="matrix(1.0000000298023224, 0, 0, 1.0000000298023224, 0, 0)" style="fill: rgb(255, 255, 255);"/><path d="M 937.299988 442.700012 L 918.700012 442.700012" class="st0" style="fill: rgb(255, 255, 255);" transform="matrix(1.0000000298023224, 0, 0, 1.0000000298023224, 0, 0)"/><path d="M937.3,444.1h-18.6c-0.8,0-1.4-0.6-1.4-1.4c0-0.8,0.6-1.4,1.4-1.4h18.6c0.8,0,1.4,0.6,1.4,1.4&#10;&#9;&#9;&#9;C938.7,443.5,938.1,444.1,937.3,444.1z" transform="matrix(1.0000000298023224, 0, 0, 1.0000000298023224, 0, 0)" style="fill: rgb(255, 255, 255);"/><path d="M 501.299988 549.799988 L 432.700012 549.799988" class="st0" style="fill: rgb(255, 255, 255);" transform="matrix(1.0000000298023224, 0, 0, 1.0000000298023224, 0, 0)"/><path d="M501.3,551.2h-68.6c-0.8,0-1.4-0.6-1.4-1.4c0-0.8,0.6-1.4,1.4-1.4h68.6c0.8,0,1.4,0.6,1.4,1.4&#10;&#9;&#9;&#9;C502.7,550.6,502.1,551.2,501.3,551.2z" transform="matrix(1.0000000298023224, 0, 0, 1.0000000298023224, 0, 0)" style="stroke: rgb(255, 255, 255); fill: rgb(255, 255, 255);"/><path d="M 486.100006 533 L 417.5 533" class="st0" style="fill: rgb(255, 255, 255);" transform="matrix(1.0000000298023224, 0, 0, 1.0000000298023224, 0, 0)"/><path d="M486.1,534.4h-68.6c-0.8,0-1.4-0.6-1.4-1.4c0-0.8,0.6-1.4,1.4-1.4h68.6c0.8,0,1.4,0.6,1.4,1.4&#10;&#9;&#9;&#9;C487.5,533.8,486.8,534.4,486.1,534.4z" transform="matrix(1.0000000298023224, 0, 0, 1.0000000298023224, 0, 0)" style="stroke: rgb(255, 255, 255); fill: rgb(255, 255, 255);"/><path d="M 447.299988 564.799988 L 378.799988 564.799988" class="st0" style="fill: rgb(255, 255, 255);" transform="matrix(1.0000000298023224, 0, 0, 1.0000000298023224, 0, 0)"/><path d="M447.3,566.2h-68.6c-0.8,0-1.4-0.6-1.4-1.4c0-0.8,0.6-1.4,1.4-1.4h68.6c0.8,0,1.4,0.6,1.4,1.4&#10;&#9;&#9;&#9;C448.7,565.6,448.1,566.2,447.3,566.2z" transform="matrix(1.0000000298023224, 0, 0, 1.0000000298023224, 0, 0)" style="stroke: rgb(255, 255, 255); fill: rgb(255, 255, 255);"/><path d="M 425.700012 549.799988 L 407 549.799988" class="st0" style="fill: rgb(255, 255, 255);" transform="matrix(1.0000000298023224, 0, 0, 1.0000000298023224, 0, 0)"/><path d="M425.7,551.2H407c-0.8,0-1.4-0.6-1.4-1.4c0-0.8,0.6-1.4,1.4-1.4h18.6c0.8,0,1.4,0.6,1.4,1.4&#10;&#9;&#9;&#9;C427.1,550.6,426.4,551.2,425.7,551.2z" transform="matrix(1.0000000298023224, 0, 0, 1.0000000298023224, 0, 0)" style="stroke: rgb(255, 255, 255); fill: rgb(255, 255, 255);"/><path d="M384.4,534.4h-36.1c-0.8,0-1.4-0.6-1.4-1.4c0-0.8,0.6-1.4,1.4-1.4h36.1c0.8,0,1.4,0.6,1.4,1.4&#10;&#9;&#9;C385.8,533.8,385.2,534.4,384.4,534.4z" transform="matrix(1, 0, 0, 1, 0, 0)" style="stroke: rgb(255, 255, 255); fill: rgb(255, 255, 255);"/><path d="M61.7,474.1H44.5c-0.8,0-1.4-0.6-1.4-1.4c0-0.8,0.6-1.4,1.4-1.4h17.1c0.8,0,1.4,0.6,1.4,1.4&#10;&#9;&#9;C63.1,473.5,62.5,474.1,61.7,474.1z" transform="matrix(1, 0, 0, 1, 0, 0)" style="stroke: rgb(255, 255, 255); fill: rgb(255, 255, 255);"/><path d="M95.2,460.5H64.1c-0.8,0-1.4-0.6-1.4-1.4c0-0.8,0.6-1.4,1.4-1.4h31.1c0.8,0,1.4,0.6,1.4,1.4&#10;&#9;&#9;C96.6,459.9,96,460.5,95.2,460.5z" transform="matrix(1, 0, 0, 1, 0, 0)" style="stroke: rgb(255, 255, 255); fill: rgb(255, 255, 255);"/><path d="M483.7,430.9h-17.1c-0.8,0-1.4-0.6-1.4-1.4c0-0.8,0.6-1.4,1.4-1.4h17.1c0.8,0,1.4,0.6,1.4,1.4&#10;&#9;&#9;C485.1,430.3,484.4,430.9,483.7,430.9z" transform="matrix(1, 0, 0, 1, 0, 0)" style="fill: rgb(255, 255, 255);"/><path d="M517.2,417.3h-31.1c-0.8,0-1.4-0.6-1.4-1.4c0-0.8,0.6-1.4,1.4-1.4h31.1c0.8,0,1.4,0.6,1.4,1.4&#10;&#9;&#9;C518.6,416.7,517.9,417.3,517.2,417.3z" transform="matrix(1, 0, 0, 1, 0, 0)" style="fill: rgb(255, 255, 255);"/><path d="M1057.4,942.7h-17.1c-0.8,0-1.4-0.6-1.4-1.4c0-0.8,0.6-1.4,1.4-1.4h17.1c0.8,0,1.4,0.6,1.4,1.4&#10;&#9;&#9;C1058.8,942.1,1058.1,942.7,1057.4,942.7z" transform="matrix(1, 0, 0, 1, 0, 0)" style="fill: rgb(255, 255, 255);"/><path d="M1090.9,929.2h-31.1c-0.8,0-1.4-0.6-1.4-1.4c0-0.8,0.6-1.4,1.4-1.4h31.1c0.8,0,1.4,0.6,1.4,1.4&#10;&#9;&#9;C1092.3,928.5,1091.6,929.2,1090.9,929.2z" transform="matrix(1, 0, 0, 1, 0, 0)" style="fill: rgb(255, 255, 255);"/><path d="M1017.3,725.3h-31.1c-0.8,0-1.4-0.6-1.4-1.4c0-0.8,0.6-1.4,1.4-1.4h31.1c0.8,0,1.4,0.6,1.4,1.4&#10;&#9;&#9;C1018.7,724.7,1018.1,725.3,1017.3,725.3z" transform="matrix(1, 0, 0, 1, 0, 0)" style="fill: rgb(255, 255, 255);"/><path d="M 141.500003 547.200012 A 7.7 7.7 0 0 1 133.800003 554.900012 A 7.7 7.7 0 0 1 126.100003 547.200012 A 7.7 7.7 0 0 1 133.800003 539.500012 A 7.7 7.7 0 0 1 141.500003 547.200012 Z" class="st7" style="fill: rgb(177, 200, 250); stroke: rgb(255, 255, 255); stroke-width: 3; stroke-miterlimit: 10;" transform="matrix(1, 0, 0, 1, 0, 0)"/><path d="M 183.399994 519.700012 L 183.399994 535.900024" class="st7" style="fill: rgb(255, 255, 255); stroke: rgb(255, 255, 255); stroke-width: 3; stroke-miterlimit: 10;" transform="matrix(1.0000000298023224, 0, 0, 1.0000000298023224, 0, 0)"/><path d="M 175.300003 527.799988 L 191.5 527.799988" class="st7" style="fill: rgb(255, 255, 255); stroke: rgb(255, 255, 255); stroke-width: 3; stroke-miterlimit: 10;" transform="matrix(1.0000000298023224, 0, 0, 1.0000000298023224, 0, 0)"/><path d="M 342.7 62.700001 A 7.7 7.7 0 0 1 335 70.400001 A 7.7 7.7 0 0 1 327.3 62.700001 A 7.7 7.7 0 0 1 335 55.000001 A 7.7 7.7 0 0 1 342.7 62.700001 Z" class="st7" style="fill: rgb(177, 200, 250); stroke: rgb(255, 255, 255); stroke-width: 3; stroke-miterlimit: 10;" transform="matrix(1, 0, 0, 1, 0, 0)"/><path d="M 384.600006 35.200001 L 384.600006 51.299999" class="st7" style="fill: rgb(255, 255, 237); stroke: rgb(255, 255, 255); stroke-width: 3; stroke-miterlimit: 10;" transform="matrix(1.0000000298023224, 0, 0, 1.0000000298023224, 0, 0)"/><path d="M 376.600006 43.299999 L 392.700012 43.299999" class="st7" style="fill: rgb(255, 255, 237); stroke: rgb(255, 255, 255); stroke-width: 3; stroke-miterlimit: 10;" transform="matrix(1.0000000298023224, 0, 0, 1.0000000298023224, 0, 0)"/><path d="M 71.100001 916.299988 A 7.7 7.7 0 0 1 63.400002 923.999988 A 7.7 7.7 0 0 1 55.700002 916.299988 A 7.7 7.7 0 0 1 63.400002 908.599988 A 7.7 7.7 0 0 1 71.100001 916.299988 Z" class="st7" style="fill: rgb(255, 255, 255); stroke: rgb(255, 255, 255); stroke-width: 3; stroke-miterlimit: 10;" transform="matrix(1, 0, 0, 1, 0, 0)"/><path d="M 113.099998 888.799988 L 113.099998 905" class="st7" style="fill: rgb(255, 255, 255); stroke: rgb(255, 255, 255); stroke-width: 3; stroke-miterlimit: 10;" transform="matrix(1.0000000298023224, 0, 0, 1.0000000298023224, 0, 0)"/><path d="M 105 896.900024 L 121.099998 896.900024" class="st7" style="fill: rgb(255, 255, 255); stroke: rgb(255, 255, 255); stroke-width: 3; stroke-miterlimit: 10;" transform="matrix(1.0000000298023224, 0, 0, 1.0000000298023224, 0, 0)"/><path d="M 1080.299975 548.900024 A 7.7 7.7 0 0 1 1072.599976 556.600024 A 7.7 7.7 0 0 1 1064.899976 548.900024 A 7.7 7.7 0 0 1 1072.599976 541.200025 A 7.7 7.7 0 0 1 1080.299975 548.900024 Z" class="st7" style="fill: rgb(177, 200, 250); stroke: rgb(255, 255, 255); stroke-width: 3; stroke-miterlimit: 10;" transform="matrix(1, 0, 0, 1, 0, 0)"/><path d="M 1342.400024 786.700012 L 1342.400024 802.900024" class="st7" style="fill: rgb(255, 255, 255); stroke: rgb(255, 255, 255); stroke-width: 3; stroke-miterlimit: 10;" transform="matrix(1.0000000298023224, 0, 0, 1.0000000298023224, 0, 0)"/><path d="M 1334.300049 794.799988 L 1350.5 794.799988" class="st7" style="fill: rgb(255, 255, 255); stroke: rgb(255, 255, 255); stroke-width: 3; stroke-miterlimit: 10;" transform="matrix(1.0000000298023224, 0, 0, 1.0000000298023224, 0, 0)"/><path d="M 510.600006 460.700012 L 510.600006 476.899994" class="st7" style="fill: rgb(255, 255, 255); stroke: rgb(255, 255, 255); stroke-width: 3; stroke-miterlimit: 10;" transform="matrix(1.0000000298023224, 0, 0, 1.0000000298023224, 0, 0)"/><path d="M 502.5 468.799988 L 518.700012 468.799988" class="st7" style="fill: rgb(255, 255, 255); stroke: rgb(255, 255, 255); stroke-width: 3; stroke-miterlimit: 10;" transform="matrix(1.0000000298023224, 0, 0, 1.0000000298023224, 0, 0)"/><path d="M 972.5 852.299988 L 972.5 868.5" class="st7" style="fill: rgb(255, 255, 255); stroke: rgb(255, 255, 255); stroke-width: 3; stroke-miterlimit: 10;" transform="matrix(1.0000000298023224, 0, 0, 1.0000000298023224, 0, 0)"/><path d="M 964.400024 860.400024 L 980.599976 860.400024" class="st7" style="fill: rgb(255, 255, 255); stroke: rgb(255, 255, 255); stroke-width: 3; stroke-miterlimit: 10;" transform="matrix(1, 0, 0, 1, 2.126722084706021, 0)"/><path d="M 199.699997 31.6 L 138.300003 31.6" class="st0" style="fill: rgb(255, 255, 255);" transform="matrix(1.0000000298023224, 0, 0, 1.0000000298023224, 0, 0)"/><path class="st8" d="M199.7,33.2h-61.3c-0.9,0-1.6-0.7-1.6-1.6c0-0.9,0.7-1.6,1.6-1.6h61.3c0.9,0,1.6,0.7,1.6,1.6&#10;&#9;&#9;&#9;C201.2,32.5,200.5,33.2,199.7,33.2z" style="fill: rgb(255, 255, 255); stroke: rgb(255, 255, 255);" transform="matrix(1.0000000298023224, 0, 0, 1.0000000298023224, 0, 0)"/><path d="M 151.399994 48.400002 L 90 48.400002" class="st0" style="fill: rgb(255, 255, 255);" transform="matrix(1.0000000298023224, 0, 0, 1.0000000298023224, 0, 0)"/><path class="st8" d="M151.4,50H90c-0.9,0-1.6-0.7-1.6-1.6c0-0.9,0.7-1.6,1.6-1.6h61.3c0.9,0,1.6,0.7,1.6,1.6&#10;&#9;&#9;&#9;C152.9,49.3,152.2,50,151.4,50z" style="fill: rgb(255, 255, 255);" transform="matrix(1.0000000298023224, 0, 0, 1.0000000298023224, 0, 0)"/><path d="M 128.800003 31.6 L 112.199997 31.6" class="st0" style="fill: rgb(255, 255, 255);" transform="matrix(1.0000000298023224, 0, 0, 1.0000000298023224, 0, 0)"/><path class="st8" d="M128.8,33.2h-16.7c-0.9,0-1.6-0.7-1.6-1.6c0-0.9,0.7-1.6,1.6-1.6h16.7c0.9,0,1.6,0.7,1.6,1.6&#10;&#9;&#9;&#9;C130.4,32.5,129.7,33.2,128.8,33.2z" style="fill: rgb(255, 255, 255);" transform="matrix(1.0000000298023224, 0, 0, 1.0000000298023224, 0, 0)"/><path d="M 125.800003 500.200012 L 1263 500.200012" class="st2" style="fill: none; stroke: rgb(255, 255, 255); stroke-width: 4; stroke-miterlimit: 10;" transform="matrix(1, 0, 0, 1, 0, 0)"/>
</svg>